# Blender 4.1.1
# www.blender.org
mtllib time.mtl
o 円柱
v -0.605978 -0.747670 0.540575
v -0.534247 -0.659166 -0.540575
v -0.448472 -0.851524 0.540575
v -0.395385 -0.750726 -0.540575
v -0.273730 -0.922655 0.540575
v -0.241328 -0.813437 -0.540575
v -0.088470 -0.958328 0.540575
v -0.077997 -0.844888 -0.540575
v 0.100191 -0.957174 0.540575
v 0.088331 -0.843870 -0.540575
v 0.285001 -0.919236 0.540575
v 0.251265 -0.810423 -0.540575
v 0.458859 -0.845972 0.540575
v 0.404542 -0.745832 -0.540575
v 0.615083 -0.740198 0.540575
v 0.542274 -0.652578 -0.540575
v 0.747670 -0.605978 0.540575
v 0.659166 -0.534247 -0.540575
v 0.851524 -0.448472 0.540575
v 0.750726 -0.395385 -0.540575
v 0.922655 -0.273730 0.540575
v 0.813437 -0.241328 -0.540575
v 0.958328 -0.088470 0.540575
v 0.844888 -0.077997 -0.540575
v 0.957174 0.100191 0.540575
v 0.843870 0.088331 -0.540575
v 0.919236 0.285001 0.540575
v 0.810423 0.251265 -0.540575
v 0.845972 0.458859 0.540575
v 0.745832 0.404542 -0.540575
v 0.740198 0.615083 0.540575
v 0.652578 0.542274 -0.540575
v 0.605978 0.747670 0.540575
v 0.534247 0.659166 -0.540575
v 0.448472 0.851524 0.540575
v 0.395385 0.750726 -0.540575
v 0.273730 0.922655 0.540575
v 0.241328 0.813437 -0.540575
v 0.088470 0.958328 0.540575
v 0.077997 0.844888 -0.540575
v -0.100191 0.957174 0.540575
v -0.088331 0.843870 -0.540575
v -0.285001 0.919236 0.540575
v -0.251265 0.810423 -0.540575
v -0.458859 0.845972 0.540575
v -0.404542 0.745832 -0.540575
v -0.615083 0.740198 0.540575
v -0.542274 0.652578 -0.540575
v -0.747670 0.605978 0.540575
v -0.659166 0.534247 -0.540575
v -0.851524 0.448472 0.540575
v -0.750726 0.395385 -0.540575
v -0.922655 0.273730 0.540575
v -0.813437 0.241328 -0.540575
v -0.958328 0.088470 0.540575
v -0.844888 0.077997 -0.540575
v -0.957174 -0.100191 0.540575
v -0.843870 -0.088331 -0.540575
v -0.919236 -0.285001 0.540575
v -0.810423 -0.251265 -0.540575
v -0.845972 -0.458859 0.540575
v -0.745832 -0.404542 -0.540575
v -0.740198 -0.615083 0.540575
v -0.652578 -0.542274 -0.540575
v -0.448472 -0.851524 -0.540575
v -0.605978 -0.747670 -0.540575
v -0.273730 -0.922655 -0.540575
v -0.088470 -0.958328 -0.540575
v 0.100191 -0.957174 -0.540575
v 0.285001 -0.919236 -0.540575
v 0.458859 -0.845972 -0.540575
v 0.615083 -0.740198 -0.540575
v 0.747670 -0.605978 -0.540575
v 0.851524 -0.448472 -0.540575
v 0.922655 -0.273730 -0.540575
v 0.958328 -0.088470 -0.540575
v 0.957174 0.100191 -0.540575
v 0.919236 0.285001 -0.540575
v 0.845972 0.458859 -0.540575
v 0.740198 0.615083 -0.540575
v 0.605978 0.747670 -0.540575
v 0.448472 0.851524 -0.540575
v 0.273730 0.922655 -0.540575
v 0.088470 0.958328 -0.540575
v -0.100191 0.957174 -0.540575
v -0.285001 0.919236 -0.540575
v -0.458859 0.845972 -0.540575
v -0.615083 0.740198 -0.540575
v -0.747670 0.605978 -0.540575
v -0.851524 0.448472 -0.540575
v -0.922655 0.273730 -0.540575
v -0.958328 0.088470 -0.540575
v -0.957174 -0.100191 -0.540575
v -0.919236 -0.285001 -0.540575
v -0.845972 -0.458859 -0.540575
v -0.740198 -0.615083 -0.540575
vn -0.3225 -0.3979 0.8589
vn -0.0000 -0.0000 -1.0000
vn -0.2387 -0.4531 0.8589
vn -0.1457 -0.4910 0.8589
vn -0.0471 -0.5100 0.8589
vn 0.0533 -0.5093 0.8589
vn 0.1517 -0.4892 0.8589
vn 0.2442 -0.4502 0.8589
vn 0.3273 -0.3939 0.8589
vn 0.3979 -0.3225 0.8589
vn 0.4531 -0.2387 0.8589
vn 0.4910 -0.1457 0.8589
vn 0.5100 -0.0471 0.8589
vn 0.5093 0.0533 0.8589
vn 0.4892 0.1517 0.8589
vn 0.4502 0.2442 0.8589
vn 0.3939 0.3273 0.8589
vn 0.3225 0.3979 0.8589
vn 0.2387 0.4531 0.8589
vn 0.1457 0.4910 0.8589
vn 0.0471 0.5100 0.8589
vn -0.0533 0.5093 0.8589
vn -0.1517 0.4892 0.8589
vn -0.2442 0.4502 0.8589
vn -0.3273 0.3939 0.8589
vn -0.3979 0.3225 0.8589
vn -0.4531 0.2387 0.8589
vn -0.4910 0.1457 0.8589
vn -0.5100 0.0471 0.8589
vn -0.5093 -0.0533 0.8589
vn -0.4892 -0.1517 0.8589
vn -0.4502 -0.2442 0.8589
vn -0.3939 -0.3273 0.8589
vn -0.2386 -0.4531 -0.8589
vn -0.3225 -0.3979 -0.8589
vn -0.1457 -0.4910 -0.8589
vn -0.0471 -0.5100 -0.8589
vn 0.0533 -0.5093 -0.8589
vn 0.1517 -0.4891 -0.8589
vn 0.2442 -0.4502 -0.8589
vn 0.3273 -0.3939 -0.8589
vn 0.3979 -0.3225 -0.8589
vn 0.4531 -0.2386 -0.8589
vn 0.4910 -0.1457 -0.8589
vn 0.5100 -0.0471 -0.8589
vn 0.5093 0.0533 -0.8589
vn 0.4891 0.1517 -0.8589
vn 0.4502 0.2442 -0.8589
vn 0.3939 0.3273 -0.8589
vn 0.3225 0.3979 -0.8589
vn 0.2386 0.4531 -0.8589
vn 0.1457 0.4910 -0.8589
vn 0.0471 0.5100 -0.8589
vn -0.0533 0.5093 -0.8589
vn -0.1517 0.4891 -0.8589
vn -0.2442 0.4502 -0.8589
vn -0.3273 0.3939 -0.8589
vn -0.3979 0.3225 -0.8589
vn -0.4531 0.2386 -0.8589
vn -0.4910 0.1457 -0.8589
vn -0.5100 0.0471 -0.8589
vn -0.5093 -0.0533 -0.8589
vn -0.4891 -0.1517 -0.8589
vn -0.4502 -0.2442 -0.8589
vn -0.3939 -0.3273 -0.8589
vt 0.500000 0.000166
vt 0.000166 0.031406
vt 0.000166 0.000166
vt 0.500000 0.031406
vt 0.000166 0.062645
vt 0.500000 0.062645
vt 0.000166 0.093885
vt 0.500000 0.093885
vt 0.000166 0.125125
vt 0.500000 0.125125
vt 0.000166 0.156364
vt 0.500000 0.156364
vt 0.000166 0.187604
vt 0.500000 0.187604
vt 0.000166 0.218843
vt 0.500000 0.218843
vt 0.000166 0.250083
vt 0.500000 0.250083
vt 0.000166 0.281323
vt 0.500000 0.281323
vt 0.000166 0.312562
vt 0.500000 0.312562
vt 0.000166 0.343802
vt 0.500000 0.343802
vt 0.000166 0.375041
vt 0.500000 0.375041
vt 0.000166 0.406281
vt 0.500000 0.406281
vt 0.000166 0.437521
vt 0.500000 0.437521
vt 0.000166 0.468760
vt 0.500000 0.468760
vt 0.000166 0.500000
vt 0.500000 0.500000
vt 0.000166 0.531240
vt 0.500000 0.531240
vt 0.000166 0.562479
vt 0.500000 0.562479
vt 0.000166 0.593719
vt 0.500000 0.593719
vt 0.000166 0.624958
vt 0.500000 0.624958
vt 0.000166 0.656198
vt 0.500000 0.656198
vt 0.000166 0.687438
vt 0.500000 0.687438
vt 0.000166 0.718677
vt 0.500000 0.718677
vt 0.000166 0.749917
vt 0.500000 0.749917
vt 0.000166 0.781156
vt 0.500000 0.781156
vt 0.000166 0.812396
vt 0.500000 0.812396
vt 0.000166 0.843636
vt 0.500000 0.843636
vt 0.000166 0.874875
vt 0.500000 0.874875
vt 0.000166 0.906115
vt 0.500000 0.906115
vt 0.000166 0.937355
vt 0.552553 0.338641
vt 0.536685 0.177530
vt 0.800498 0.036519
vt 0.500000 0.937355
vt 0.000166 0.968594
vt 0.500000 0.968594
vt 0.000166 0.999834
vt 0.715581 0.478029
vt 0.500332 0.740310
vt 0.762614 0.955558
vt 0.873284 0.075424
vt 0.852195 0.027340
vt 0.891301 0.053470
vt 0.838807 0.052387
vt 0.808743 0.009342
vt 0.762614 0.000166
vt 0.759830 0.028430
vt 0.715581 0.000166
vt 0.677696 0.036519
vt 0.718365 0.028430
vt 0.639387 0.052387
vt 0.669452 0.009342
vt 0.604910 0.075424
vt 0.626000 0.027340
vt 0.575590 0.104744
vt 0.586894 0.053470
vt 0.527507 0.125834
vt 0.553636 0.086727
vt 0.552553 0.139221
vt 0.509508 0.169286
vt 0.500332 0.215415
vt 0.528596 0.218199
vt 0.500332 0.262447
vt 0.536685 0.300332
vt 0.528596 0.259664
vt 0.509508 0.308576
vt 0.575590 0.373118
vt 0.527507 0.352029
vt 0.604910 0.402438
vt 0.553636 0.391135
vt 0.626000 0.450522
vt 0.586893 0.424392
vt 0.639387 0.425475
vt 0.669452 0.468520
vt 0.677696 0.441343
vt 0.715581 0.477696
vt 0.718364 0.449433
vt 0.762614 0.477696
vt 0.800498 0.441343
vt 0.759830 0.449433
vt 0.838807 0.425475
vt 0.808742 0.468521
vt 0.873284 0.402438
vt 0.852195 0.450522
vt 0.902604 0.373118
vt 0.891301 0.424392
vt 0.950688 0.352029
vt 0.924558 0.391135
vt 0.925641 0.338641
vt 0.968687 0.308576
vt 0.941509 0.300332
vt 0.977862 0.262448
vt 0.949599 0.259664
vt 0.977862 0.215415
vt 0.941509 0.177530
vt 0.949599 0.218199
vt 0.925641 0.139221
vt 0.968687 0.169286
vt 0.902604 0.104744
vt 0.950688 0.125834
vt 0.924558 0.086727
vt 0.500000 0.999834
vt 0.808742 0.946383
vt 0.852195 0.928384
vt 0.891301 0.902254
vt 0.924558 0.868997
vt 0.950688 0.829891
vt 0.968687 0.786439
vt 0.977862 0.740310
vt 0.977862 0.693277
vt 0.968687 0.647148
vt 0.950688 0.603696
vt 0.924558 0.564590
vt 0.891301 0.531333
vt 0.852195 0.505203
vt 0.808742 0.487204
vt 0.762614 0.478029
vt 0.669452 0.487204
vt 0.626000 0.505203
vt 0.586893 0.531333
vt 0.553636 0.564590
vt 0.527507 0.603696
vt 0.509508 0.647148
vt 0.500332 0.693277
vt 0.509508 0.786439
vt 0.527507 0.829891
vt 0.553636 0.868997
vt 0.586893 0.902254
vt 0.626000 0.928384
vt 0.669452 0.946383
vt 0.715581 0.955558
s 1
usemtl マテリアル
f 66/1/35 3/2/3 1/3/1
f 65/4/34 5/5/4 3/2/3
f 67/6/36 7/7/5 5/5/4
f 68/8/37 9/9/6 7/7/5
f 69/10/38 11/11/7 9/9/6
f 70/12/39 13/13/8 11/11/7
f 71/14/40 15/15/9 13/13/8
f 72/16/41 17/17/10 15/15/9
f 73/18/42 19/19/11 17/17/10
f 74/20/43 21/21/12 19/19/11
f 75/22/44 23/23/13 21/21/12
f 76/24/45 25/25/14 23/23/13
f 77/26/46 27/27/15 25/25/14
f 78/28/47 29/29/16 27/27/15
f 79/30/48 31/31/17 29/29/16
f 80/32/49 33/33/18 31/31/17
f 81/34/50 35/35/19 33/33/18
f 82/36/51 37/37/20 35/35/19
f 83/38/52 39/39/21 37/37/20
f 84/40/53 41/41/22 39/39/21
f 85/42/54 43/43/23 41/41/22
f 86/44/55 45/45/24 43/43/23
f 87/46/56 47/47/25 45/45/24
f 88/48/57 49/49/26 47/47/25
f 89/50/58 51/51/27 49/49/26
f 90/52/59 53/53/28 51/51/27
f 91/54/60 55/55/29 53/53/28
f 92/56/61 57/57/30 55/55/29
f 93/58/62 59/59/31 57/57/30
f 94/60/63 61/61/32 59/59/31
f 30/62/2 22/63/2 6/64/2
f 95/65/64 63/66/33 61/61/32
f 96/67/65 1/68/1 63/66/33
f 31/69/17 47/70/25 63/71/33
f 2/72/2 65/73/34 66/74/35
f 4/75/2 67/76/36 65/73/34
f 6/64/2 68/77/37 67/76/36
f 8/78/2 69/79/38 68/77/37
f 12/80/2 69/79/38 10/81/2
f 14/82/2 70/83/39 12/80/2
f 16/84/2 71/85/40 14/82/2
f 18/86/2 72/87/41 16/84/2
f 18/86/2 74/88/43 73/89/42
f 20/90/2 75/91/44 74/88/43
f 22/63/2 76/92/45 75/91/44
f 24/93/2 77/94/46 76/92/45
f 28/95/2 77/94/46 26/96/2
f 30/62/2 78/97/47 28/95/2
f 32/98/2 79/99/48 30/62/2
f 34/100/2 80/101/49 32/98/2
f 34/100/2 82/102/51 81/103/50
f 36/104/2 83/105/52 82/102/51
f 38/106/2 84/107/53 83/105/52
f 40/108/2 85/109/54 84/107/53
f 44/110/2 85/109/54 42/111/2
f 46/112/2 86/113/55 44/110/2
f 48/114/2 87/115/56 46/112/2
f 50/116/2 88/117/57 48/114/2
f 50/116/2 90/118/59 89/119/58
f 52/120/2 91/121/60 90/118/59
f 54/122/2 92/123/61 91/121/60
f 56/124/2 93/125/62 92/123/61
f 60/126/2 93/125/62 58/127/2
f 62/128/2 94/129/63 60/126/2
f 64/130/2 95/131/64 62/128/2
f 2/72/2 96/132/65 64/130/2
f 66/1/35 65/4/34 3/2/3
f 65/4/34 67/6/36 5/5/4
f 67/6/36 68/8/37 7/7/5
f 68/8/37 69/10/38 9/9/6
f 69/10/38 70/12/39 11/11/7
f 70/12/39 71/14/40 13/13/8
f 71/14/40 72/16/41 15/15/9
f 72/16/41 73/18/42 17/17/10
f 73/18/42 74/20/43 19/19/11
f 74/20/43 75/22/44 21/21/12
f 75/22/44 76/24/45 23/23/13
f 76/24/45 77/26/46 25/25/14
f 77/26/46 78/28/47 27/27/15
f 78/28/47 79/30/48 29/29/16
f 79/30/48 80/32/49 31/31/17
f 80/32/49 81/34/50 33/33/18
f 81/34/50 82/36/51 35/35/19
f 82/36/51 83/38/52 37/37/20
f 83/38/52 84/40/53 39/39/21
f 84/40/53 85/42/54 41/41/22
f 85/42/54 86/44/55 43/43/23
f 86/44/55 87/46/56 45/45/24
f 87/46/56 88/48/57 47/47/25
f 88/48/57 89/50/58 49/49/26
f 89/50/58 90/52/59 51/51/27
f 90/52/59 91/54/60 53/53/28
f 91/54/60 92/56/61 55/55/29
f 92/56/61 93/58/62 57/57/30
f 93/58/62 94/60/63 59/59/31
f 94/60/63 95/65/64 61/61/32
f 6/64/2 4/75/2 62/128/2
f 4/75/2 2/72/2 62/128/2
f 2/72/2 64/130/2 62/128/2
f 62/128/2 60/126/2 58/127/2
f 58/127/2 56/124/2 54/122/2
f 54/122/2 52/120/2 50/116/2
f 50/116/2 48/114/2 54/122/2
f 48/114/2 46/112/2 54/122/2
f 46/112/2 44/110/2 42/111/2
f 42/111/2 40/108/2 38/106/2
f 38/106/2 36/104/2 34/100/2
f 34/100/2 32/98/2 38/106/2
f 32/98/2 30/62/2 38/106/2
f 30/62/2 28/95/2 26/96/2
f 26/96/2 24/93/2 22/63/2
f 22/63/2 20/90/2 18/86/2
f 18/86/2 16/84/2 22/63/2
f 16/84/2 14/82/2 22/63/2
f 14/82/2 12/80/2 10/81/2
f 10/81/2 8/78/2 6/64/2
f 62/128/2 58/127/2 54/122/2
f 46/112/2 42/111/2 54/122/2
f 42/111/2 38/106/2 54/122/2
f 30/62/2 26/96/2 22/63/2
f 14/82/2 10/81/2 22/63/2
f 10/81/2 6/64/2 22/63/2
f 6/64/2 62/128/2 38/106/2
f 62/128/2 54/122/2 38/106/2
f 38/106/2 30/62/2 6/64/2
f 95/65/64 96/67/65 63/66/33
f 96/67/65 66/133/35 1/68/1
f 63/71/33 1/134/1 3/135/3
f 3/135/3 5/136/4 7/137/5
f 7/137/5 9/138/6 11/139/7
f 11/139/7 13/140/8 15/141/9
f 15/141/9 17/142/10 19/143/11
f 19/143/11 21/144/12 23/145/13
f 23/145/13 25/146/14 27/147/15
f 27/147/15 29/148/16 31/69/17
f 31/69/17 33/149/18 35/150/19
f 35/150/19 37/151/20 39/152/21
f 39/152/21 41/153/22 43/154/23
f 43/154/23 45/155/24 47/70/25
f 47/70/25 49/156/26 51/157/27
f 51/157/27 53/158/28 55/159/29
f 55/159/29 57/160/30 59/161/31
f 59/161/31 61/162/32 63/71/33
f 63/71/33 3/135/3 15/141/9
f 3/135/3 7/137/5 15/141/9
f 7/137/5 11/139/7 15/141/9
f 15/141/9 19/143/11 31/69/17
f 19/143/11 23/145/13 31/69/17
f 23/145/13 27/147/15 31/69/17
f 31/69/17 35/150/19 47/70/25
f 35/150/19 39/152/21 47/70/25
f 39/152/21 43/154/23 47/70/25
f 47/70/25 51/157/27 63/71/33
f 51/157/27 55/159/29 63/71/33
f 55/159/29 59/161/31 63/71/33
f 63/71/33 15/141/9 31/69/17
f 2/72/2 4/75/2 65/73/34
f 4/75/2 6/64/2 67/76/36
f 6/64/2 8/78/2 68/77/37
f 8/78/2 10/81/2 69/79/38
f 12/80/2 70/83/39 69/79/38
f 14/82/2 71/85/40 70/83/39
f 16/84/2 72/87/41 71/85/40
f 18/86/2 73/89/42 72/87/41
f 18/86/2 20/90/2 74/88/43
f 20/90/2 22/63/2 75/91/44
f 22/63/2 24/93/2 76/92/45
f 24/93/2 26/96/2 77/94/46
f 28/95/2 78/97/47 77/94/46
f 30/62/2 79/99/48 78/97/47
f 32/98/2 80/101/49 79/99/48
f 34/100/2 81/103/50 80/101/49
f 34/100/2 36/104/2 82/102/51
f 36/104/2 38/106/2 83/105/52
f 38/106/2 40/108/2 84/107/53
f 40/108/2 42/111/2 85/109/54
f 44/110/2 86/113/55 85/109/54
f 46/112/2 87/115/56 86/113/55
f 48/114/2 88/117/57 87/115/56
f 50/116/2 89/119/58 88/117/57
f 50/116/2 52/120/2 90/118/59
f 52/120/2 54/122/2 91/121/60
f 54/122/2 56/124/2 92/123/61
f 56/124/2 58/127/2 93/125/62
f 60/126/2 94/129/63 93/125/62
f 62/128/2 95/131/64 94/129/63
f 64/130/2 96/132/65 95/131/64
f 2/72/2 66/74/35 96/132/65
