# Blender 4.1.1
# www.blender.org
mtllib HPheal.mtl
o 立方体
v -0.308280 -1.123319 0.529247
v -0.308280 1.123319 0.529247
v -0.308280 -1.123319 -0.529247
v -0.308280 1.123319 -0.529247
v 0.308280 -1.123319 0.529247
v 0.308280 1.123319 0.529247
v 0.308280 -1.123319 -0.529247
v 0.308280 1.123319 -0.529247
v 1.000000 -0.346296 0.529247
v -1.000000 -0.346296 0.529247
v 1.000000 -0.346296 -0.529247
v -1.000000 -0.346296 -0.529247
v 1.000000 0.346296 0.529247
v -1.000000 0.346296 0.529247
v 1.000000 0.346296 -0.529247
v -1.000000 0.346296 -0.529247
vn -1.0000 -0.0000 -0.0000
vn -0.0000 -0.0000 -1.0000
vn 1.0000 -0.0000 -0.0000
vn -0.0000 -0.0000 1.0000
vn -0.0000 -1.0000 -0.0000
vn -0.0000 1.0000 -0.0000
vt 0.625000 0.000000
vt 0.375000 0.250000
vt 0.375000 0.000000
vt 0.625000 0.250000
vt 0.375000 0.500000
vt 0.625000 0.500000
vt 0.375000 0.750000
vt 0.625000 0.750000
vt 0.375000 1.000000
vt 0.125000 0.750000
vt 0.125000 0.500000
vt 0.875000 0.500000
vt 0.625000 1.000000
vt 0.875000 0.750000
s 1
usemtl マテリアル.001
f 2/1/1 3/2/1 1/3/1
f 4/4/2 7/5/2 3/2/2
f 8/6/3 5/7/3 7/5/3
f 6/8/4 1/9/4 5/7/4
f 7/5/5 1/10/5 3/11/5
f 4/12/6 6/8/6 8/6/6
f 10/1/5 11/2/5 9/3/5
f 12/4/2 15/5/2 11/2/2
f 16/6/6 13/7/6 15/5/6
f 14/8/4 9/9/4 13/7/4
f 15/5/3 9/10/3 11/11/3
f 12/12/1 14/8/1 16/6/1
f 2/1/1 4/4/1 3/2/1
f 4/4/2 8/6/2 7/5/2
f 8/6/3 6/8/3 5/7/3
f 6/8/4 2/13/4 1/9/4
f 7/5/5 5/7/5 1/10/5
f 4/12/6 2/14/6 6/8/6
f 10/1/5 12/4/5 11/2/5
f 12/4/2 16/6/2 15/5/2
f 16/6/6 14/8/6 13/7/6
f 14/8/4 10/13/4 9/9/4
f 15/5/3 13/7/3 9/10/3
f 12/12/1 10/14/1 14/8/1
